<svg id="Layer_1" data-name="Layer 1" xmlns="http://www.w3.org/2000/svg" xmlns:xlink="http://www.w3.org/1999/xlink" viewBox="0 0 360 360"><defs><clipPath id="clip-path"><polygon points="180 316.03 209.55 316.03 211.23 87.24 304.09 87.24 304.09 43.97 55.91 43.97 55.91 87.24 148.71 87.24 148.71 316.03 180 316.03" style="fill:none"/></clipPath></defs><title>logo</title><g id="t"><g style="clip-path:url(#clip-path)"><polygon points="229.39 336.06 153.91 336.06 174.48 287.92 229.39 336.06" style="fill:#a2d9d4"/><polygon points="338.05 84.69 305.77 90.98 304.09 68.13 338.05 84.69" style="fill:#5a5f94"/><polygon points="310.03 32.37 309.37 36.34 305.53 33.25 310.03 32.37" style="fill:#5a5f94"/><polygon points="309.37 36.34 309.27 36.96 251.49 43.99 305.53 33.25 309.37 36.34" style="fill:#5a5f94"/><polygon points="309.27 36.96 304.09 68.13 251.49 43.99 309.27 36.96" style="fill:#5a5f94"/><polygon points="305.53 33.25 251.49 43.99 264.37 0.26 305.53 33.25" style="fill:#12223e"/><polygon points="304.09 68.13 305.77 90.98 240 90.13 304.09 68.13" style="fill:#526c7f"/><polygon points="304.09 105.94 253.81 195.96 210.64 143.06 304.09 105.94" style="fill:#5a5f94"/><polygon points="304.09 68.13 240 90.13 240.3 89.2 240.66 89.2 240.38 89 251.49 43.99 304.09 68.13" style="fill:#36495e"/><polygon points="305.77 90.98 212.32 145.77 240 90.13 305.77 90.98" style="fill:#12223e"/><polygon points="303.57 135.55 298.5 178.25 258.81 181.43 303.57 135.55" style="fill:#5a5f94"/><polygon points="282.37 231.26 217.63 305.63 216.83 298.44 282.37 231.26" style="fill:#607ea1"/><polygon points="282.37 231.26 216.83 298.44 210.64 242.92 282.37 231.26" style="fill:#607ea1"/><polygon points="276.17 222.65 210.64 242.92 243.48 200.29 276.17 222.65" style="fill:#5a5f94"/><polygon points="264.37 0.26 251.49 43.99 222.18 2.28 264.37 0.26" style="fill:#607ea1"/><polygon points="258.81 181.43 243.48 200.29 251.95 181.71 258.81 181.43" style="fill:#5a5f94"/><polygon points="258.81 181.43 251.95 181.71 252.21 180.34 253.81 178.29 258.81 181.43" style="fill:#294360"/><polygon points="253.81 178.29 252.21 180.34 210.64 143.06 253.81 178.29" style="fill:#294360"/><polygon points="252.21 180.34 251.95 181.71 187.06 158.55 210.64 143.06 252.21 180.34" style="fill:#36495e"/><polygon points="251.95 181.71 243.48 200.29 187.06 158.55 251.95 181.71" style="fill:#5a5f94"/><polygon points="222.18 2.28 251.49 43.99 196.28 43.99 222.18 2.28" style="fill:#659faf"/><polygon points="251.49 43.99 240.38 89 196.28 43.99 251.49 43.99" style="fill:#5a5f94"/><polygon points="251.31 -44.83 222.18 2.28 196.28 43.99 166.27 -2.59 170.96 -10.81 220.95 -12.4 191.06 -46.08 251.31 -44.83" style="fill:#607ea1"/><polygon points="243.48 200.29 210.64 242.92 174.48 202.24 243.48 200.29" style="fill:#607ea1"/><polygon points="243.48 200.29 174.48 202.24 187.06 158.55 243.48 200.29" style="fill:#659faf"/><polygon points="240.38 89 240.3 89.2 182.66 98.88 196.28 43.99 240.38 89" style="fill:#32506d"/><polygon points="240.3 89.2 240 90.13 210.64 143.06 182.66 98.88 240.3 89.2" style="fill:#5a5f94"/><polygon points="212.13 303.26 229.39 336.06 174.48 287.92 212.13 303.26" style="fill:#5a5f94"/><polygon points="210.64 242.92 216.83 298.44 212.13 303.26 210.64 242.92" style="fill:#607ea1"/><polygon points="210.64 242.92 212.13 303.26 174.48 287.92 210.64 242.92" style="fill:#607ea1"/><polygon points="182.66 99.64 210.64 143.06 147.1 120.85 182.66 99.64" style="fill:#607ea1"/><polygon points="210.64 143.06 187.06 158.55 147.1 120.85 210.64 143.06" style="fill:#7279aa"/><polygon points="174.48 202.24 210.64 242.92 147.96 230.7 174.48 202.24" style="fill:#7a85bc"/><polygon points="210.64 242.92 174.48 287.92 147.96 230.7 210.64 242.92" style="fill:#659faf"/><polygon points="166.27 -2.59 196.28 43.99 152.2 22.75 160.46 3.35 162.41 4.19 166.27 -2.59" style="fill:#5a5f94"/><polygon points="196.28 43.99 182.66 98.88 138.43 44.07 196.28 43.99" style="fill:#5a5f94"/><polygon points="196.28 43.99 138.43 44.07 150.92 25.75 152.2 22.75 196.28 43.99" style="fill:#659faf"/><polygon points="187.06 158.55 174.48 202.24 144.85 156.31 187.06 158.55" style="fill:#607ea1"/><polygon points="187.06 158.55 144.85 156.31 147.1 120.85 187.06 158.55" style="fill:#7a85bc"/><polygon points="182.66 98.88 147.1 120.85 125.17 74 182.66 98.88" style="fill:#659faf"/><polygon points="182.66 98.88 148.71 88.26 138.43 44.07 182.66 98.88" style="fill:#607ea1"/><polygon points="144.85 156.31 174.48 202.24 122.33 198.65 144.85 156.31" style="fill:#659faf"/><polygon points="174.48 202.24 147.96 230.7 122.33 198.65 174.48 202.24" style="fill:#6dc8bd"/><polygon points="147.96 230.7 174.48 287.92 128.89 281.44 147.96 230.7" style="fill:#659faf"/><polygon points="174.48 287.92 153.91 336.06 128.89 281.44 174.48 287.92" style="fill:#6dc8bd"/><polygon points="161.77 0.26 160.46 3.35 152.2 22.75 150.28 21.84 127.94 7.22 161.77 0.26" style="fill:#5a5f94"/><polygon points="152.2 22.75 150.92 25.75 138.43 44.07 127.94 7.22 150.28 21.84 152.2 22.75" style="fill:#659faf"/><polygon points="122.33 198.65 147.96 230.7 102.37 240.57 122.33 198.65" style="fill:#6dc8bd"/><polygon points="147.96 230.7 128.89 281.44 102.37 240.57 147.96 230.7" style="fill:#659faf"/><polygon points="148.71 88.26 147.1 120.85 96.82 127.93 148.71 88.26" style="fill:#6dc8bd"/><polygon points="147.1 120.85 144.85 156.31 96.82 127.93 147.1 120.85" style="fill:#64c1b1"/><polygon points="144.85 156.31 122.33 198.65 95.77 168.25 144.85 156.31" style="fill:#6dc8bd"/><polygon points="144.85 156.31 95.77 168.25 96.82 127.93 144.85 156.31" style="fill:#659faf"/><polygon points="127.94 7.22 138.43 44.07 95.77 43.97 127.94 7.22" style="fill:#607ea1"/><polygon points="138.43 44.07 148.71 88.26 95.77 43.97 138.43 44.07" style="fill:#607ea1"/><polygon points="95.77 43.97 148.71 88.26 81.05 65.08 95.77 43.97" style="fill:#659faf"/><polygon points="148.71 88.26 96.82 127.93 81.05 65.08 148.71 88.26" style="fill:#659faf"/><polygon points="95.77 168.25 122.33 198.65 60.21 213.61 95.77 168.25" style="fill:#6dc8bd"/><polygon points="122.33 198.65 102.37 240.57 60.21 213.61 122.33 198.65" style="fill:#6dc8bd"/><polygon points="81.05 65.08 96.82 127.93 55.9 88.26 81.05 65.08" style="fill:#6dc8bd"/><polygon points="96.82 127.93 92.67 168.15 92.61 168.15 52.79 88.26 96.82 127.93" style="fill:#91d3cb"/><polygon points="96.82 127.93 52.79 88.26 55.9 87.65 55.9 88.26 96.82 127.93" style="fill:#6dc8bd"/><polygon points="95.77 43.97 81.05 65.08 55.9 44.07 95.77 43.97" style="fill:#6dc8bd"/><polygon points="95.77 168.25 60.21 213.61 9.44 165.68 92.66 168.25 92.67 168.15 95.77 168.25" style="fill:#6dc8bd"/><polygon points="92.67 168.15 92.66 168.25 92.61 168.15 92.67 168.15" style="fill:#91d3cb"/><polygon points="92.61 168.15 92.66 168.25 9.44 165.68 9.33 165.57 92.61 168.15" style="fill:#6dc8bd"/><polygon points="52.79 88.26 92.61 168.15 9.33 165.57 9.3 165.68 6.22 165.57 52.79 88.26" style="fill:#6dc8bd"/><polygon points="55.9 44.07 81.05 65.08 55.9 88.26 55.9 44.07" style="fill:#91d3cb"/><polygon points="81.05 65.08 55.9 88.26 55.9 87.65 81.05 65.08" style="fill:#6dc8bd"/><polyline points="251.49 43.99 305.53 33.25 310.03 32.37" style="fill:none;stroke:#fff;stroke-miterlimit:10"/><line x1="276.17" y1="222.66" x2="210.64" y2="242.92" style="fill:none;stroke:#fff;stroke-miterlimit:10"/><polyline points="282.37 231.26 217.63 305.63 216.83 298.44" style="fill:none;stroke:#fff;stroke-miterlimit:10"/><line x1="258.81" y1="181.43" x2="243.48" y2="200.29" style="fill:none;stroke:#fff;stroke-miterlimit:10"/><line x1="96.82" y1="127.93" x2="55.9" y2="88.27" style="fill:none;stroke:#fff;stroke-miterlimit:10"/><polyline points="96.82 127.93 92.67 168.15 92.66 168.25" style="fill:none;stroke:#fff;stroke-miterlimit:10"/><line x1="92.67" y1="168.16" x2="95.77" y2="168.26" style="fill:none;stroke:#fff;stroke-miterlimit:10"/><line x1="9.33" y1="165.58" x2="92.61" y2="168.16" style="fill:none;stroke:#fff;stroke-miterlimit:10"/><polyline points="53.12 407.02 110.96 390.55 47.47 371.38 115.16 322.38" style="fill:none;stroke:#fff;stroke-miterlimit:10"/><polyline points="191.06 -46.08 220.95 -12.4 170.96 -10.81 161.18 -10.5 166.27 -2.59 196.28 43.99 152.2 22.75 150.28 21.84 127.94 7.22 95.77 43.97 138.43 44.07 148.71 88.26 95.77 43.97 81.05 65.08 148.71 88.26 182.66 98.88 138.43 44.07" style="fill:none;stroke:#fff;stroke-miterlimit:10"/><polyline points="264.37 0.26 222.18 2.28 251.49 43.99 196.28 43.99 138.43 44.07 127.94 7.22 161.77 0.26 160.46 3.35 152.2 22.75 150.92 25.75 138.43 44.07" style="fill:none;stroke:#fff;stroke-miterlimit:10"/><polyline points="196.28 43.99 240.38 89 240.66 89.2 240.3 89.2 182.66 98.88 210.64 143.06 147.1 120.85 187.06 158.55 144.85 156.31 174.48 202.24 122.33 198.65 147.96 230.7 102.37 240.57 128.89 281.44 78.16 284.17 115.16 322.38" style="fill:none;stroke:#fff;stroke-miterlimit:10"/><polyline points="92.66 168.25 92.61 168.15 52.79 88.26 96.82 127.93 81.05 65.08 55.9 87.65 52.79 88.26 6.22 165.57 9.3 165.68 9.44 165.68" style="fill:none;stroke:#fff;stroke-miterlimit:10"/><polyline points="191.06 -46.08 170.96 -10.81 166.27 -2.59 162.41 4.19" style="fill:none;stroke:#fff;stroke-miterlimit:10"/><polyline points="-5.81 206.9 60.21 213.61 9.44 165.68 9.33 165.57 9.3 165.68 -5.81 206.9 51.56 254.49 -4.05 258.69 -5.81 206.9 -55.39 253.13 -4.05 258.69" style="fill:none;stroke:#fff;stroke-miterlimit:10"/><polyline points="-60.55 322.69 -46.06 358.82 -20.79 311.52 9.3 302.37 -4.05 258.69 -20.79 311.52 -4.65 348.41" style="fill:none;stroke:#fff;stroke-miterlimit:10"/><polyline points="-46.06 358.82 -20.83 391.8 6.61 442.17 21.44 496.4 73.19 579.88 89.52 519.5 103.69 449.5 53.12 407.02 47.47 371.38 57.68 335.21 115.16 322.38 128.89 281.44 147.96 230.7 174.48 202.24 187.06 158.55 210.64 143.06 240 90.13 240.3 89.2 240.38 89 251.49 43.99 264.37 0.26 251.31 -44.83 228.96 -89.12 206.19 -128.03 184.88 -174.49 165.23 -136.83 206.19 -128.03 195.14 -96.39 228.96 -89.12 191.06 -46.08 251.31 -44.83 222.18 2.28 196.28 43.99 182.66 98.88 147.1 120.85 144.85 156.31 122.33 198.65 102.37 240.57 78.16 284.17 57.68 335.21 9.3 302.37 78.16 284.17 51.56 254.49 102.37 240.57 60.21 213.61 122.33 198.65 95.77 168.25 144.85 156.31 96.82 127.93 147.1 120.85 148.71 88.26 96.82 127.93 95.77 168.25 60.21 213.61 51.56 254.49 9.3 302.37 -4.65 348.41 57.68 335.21" style="fill:none;stroke:#fff;stroke-miterlimit:10"/><polyline points="-20.83 391.8 47.47 371.38 -4.65 348.41 -20.83 391.8 53.12 407.02 6.61 442.17 103.69 449.5 21.44 496.4 89.52 519.5 152.32 517.52 73.19 579.88 150.67 579.71 152.32 517.52 160.62 485.13 103.69 449.5 152.32 517.52" style="fill:none;stroke:#fff;stroke-miterlimit:10"/><polyline points="253.81 195.96 305.77 108.65 305.77 70.84 309.27 36.96 309.37 36.34 310.03 32.37 307.84 -16.99 264.37 0.26 305.53 33.25 309.37 36.34 310.03 36.87 309.27 36.96 251.49 43.99 304.09 68.13 240 90.13 305.77 90.98 212.32 145.77 253.81 178.29 258.81 181.43 251.95 181.71 187.06 158.55 243.48 200.29 174.48 202.24 210.64 242.92 147.96 230.7 174.48 287.92 128.89 281.44 153.91 336.06 229.39 336.06" style="fill:none;stroke:#fff;stroke-miterlimit:10"/><polyline points="103.69 449.5 110.96 390.55 104.46 361.49 115.16 322.38 153.91 336.06 174.48 287.92 210.64 242.92 243.48 200.29 251.95 181.71 252.21 180.34" style="fill:none;stroke:#fff;stroke-miterlimit:10"/><polyline points="307.84 -16.99 349.5 10.85 351.92 56.75 338.05 84.69 303.57 135.55 298.5 178.25 243.48 200.29 276.17 222.65 298.5 178.25 258.81 181.43 303.57 135.55 305.77 90.98 338.05 84.69 304.09 68.13 351.92 56.75 310.03 36.87 349.5 10.85" style="fill:none;stroke:#fff;stroke-miterlimit:10"/><polygon points="282.37 231.26 210.64 242.92 212.13 303.26 216.83 298.44 282.37 231.26" style="fill:none;stroke:#fff;stroke-miterlimit:10"/><polygon points="174.48 287.92 212.13 303.26 229.39 336.06 174.48 287.92" style="fill:none;stroke:#fff;stroke-miterlimit:10"/><polyline points="81.05 65.08 55.9 44.07 55.9 88.26" style="fill:none;stroke:#fff;stroke-miterlimit:10"/><line x1="55.9" y1="44.08" x2="95.77" y2="43.97" style="fill:none;stroke:#fff;stroke-miterlimit:10"/></g></g><g id="border1.5"><polygon points="180 316.03 209.55 316.03 211.23 87.24 304.09 87.24 304.09 43.97 55.91 43.97 55.91 87.24 148.71 87.24 148.71 316.03 180 316.03" style="fill:none;stroke:#fff;stroke-miterlimit:10;stroke-width:1.5px"/></g></svg>